HIERARCHY
ROOT hip
{
  OFFSET 0 0 0
  CHANNELS 6 Xposition Yposition Zposition Zrotation Yrotation Xrotation
  JOINT abdomen
  {
    OFFSET 0 20.6881 -0.73152
    CHANNELS 3 Zrotation Xrotation Yrotation
    JOINT chest
    {
      OFFSET 0 11.7043 -0.48768
      CHANNELS 3 Zrotation Xrotation Yrotation
      JOINT neck
      {
        OFFSET 0 22.1894 -2.19456
        CHANNELS 3 Zrotation Xrotation Yrotation
        JOINT head
        {
          OFFSET -0.24384 7.07133 1.2192
          CHANNELS 3 Zrotation Xrotation Yrotation
          JOINT leftEye
          {
            OFFSET 4.14528 8.04674 8.04672
            CHANNELS 3 Zrotation Xrotation Yrotation
            End Site
            {
              OFFSET 1 0 0
            }
          }
          JOINT rightEye
          {
            OFFSET -3.6576 8.04674 8.04672
            CHANNELS 3 Zrotation Xrotation Yrotation
            End Site
            {
              OFFSET 1 0 0
            }
          }
        }
      }
      JOINT rCollar
      {
        OFFSET -2.68224 19.2634 -4.8768
        CHANNELS 3 Zrotation Xrotation Yrotation
        JOINT rShldr
        {
          OFFSET -8.77824 -1.95073 1.46304
          CHANNELS 3 Zrotation Xrotation Yrotation
          JOINT rForeArm
          {
            OFFSET -28.1742 -1.7115 0.48768
            CHANNELS 3 Zrotation Xrotation Yrotation
            JOINT rHand
            {
              OFFSET -22.5879 0.773209 7.07136
              CHANNELS 3 Zrotation Xrotation Yrotation
              JOINT rThumb1
              {
                OFFSET -1.2192 -0.487915 3.41376
                CHANNELS 3 Zrotation Xrotation Yrotation
                JOINT rThumb2
                {
                  OFFSET -3.37035 -0.52449 3.41376
                  CHANNELS 3 Zrotation Xrotation Yrotation
                  End Site
                  {
                    OFFSET -1.78271 -1.18214 1.43049
                  }
                }
              }
              JOINT rIndex1
              {
                OFFSET -7.75947 0.938293 5.60832
                CHANNELS 3 Zrotation Xrotation Yrotation
                JOINT rIndex2
                {
                  OFFSET -2.54057 -0.884171 1.56538
                  CHANNELS 3 Zrotation Xrotation Yrotation
                  End Site
                  {
                    OFFSET -1.62519 -0.234802 1.16502
                  }
                }
              }
              JOINT rMid1
              {
                OFFSET -8.24714 1.18213 3.41376
                CHANNELS 3 Zrotation Xrotation Yrotation
                JOINT rMid2
                {
                  OFFSET -3.10165 -0.590103 1.0647
                  CHANNELS 3 Zrotation Xrotation Yrotation
                  End Site
                  {
                    OFFSET -2.48547 -0.328903 0.83742
                  }
                }
              }
              JOINT rRing1
              {
                OFFSET -8.82822 0.546677 1.51678
                CHANNELS 3 Zrotation Xrotation Yrotation
                JOINT rRing2
                {
                  OFFSET -2.60934 -0.819778 -0.0198488
                  CHANNELS 3 Zrotation Xrotation Yrotation
                  End Site
                  {
                    OFFSET -2.33842 -0.294052 0.168128
                  }
                }
              }
              JOINT rPinky1
              {
                OFFSET -8.27202 -0.0477905 -0.4584
                CHANNELS 3 Zrotation Xrotation Yrotation
                JOINT rPinky2
                {
                  OFFSET -1.82734 -0.647385 -0.700984
                  CHANNELS 3 Zrotation Xrotation Yrotation
                  End Site
                  {
                    OFFSET -1.69225 -0.51767 -0.607171
                  }
                }
              }
            }
          }
        }
      }
      JOINT lCollar
      {
        OFFSET 2.68224 19.2634 -4.8768
        CHANNELS 3 Zrotation Xrotation Yrotation
        JOINT lShldr
        {
          OFFSET 8.77824 -1.95073 1.46304
          CHANNELS 3 Zrotation Xrotation Yrotation
          JOINT lForeArm
          {
            OFFSET 28.1742 -1.7115 0.48768
            CHANNELS 3 Zrotation Xrotation Yrotation
            JOINT lHand
            {
              OFFSET 22.5879 0.773209 7.07136
              CHANNELS 3 Zrotation Xrotation Yrotation
              JOINT lThumb1
              {
                OFFSET 1.2192 -0.487915 3.41376
                CHANNELS 3 Zrotation Xrotation Yrotation
                JOINT lThumb2
                {
                  OFFSET 3.37035 -0.52449 3.41376
                  CHANNELS 3 Zrotation Xrotation Yrotation
                  End Site
                  {
                    OFFSET 1.78271 -1.18214 1.43049
                  }
                }
              }
              JOINT lIndex1
              {
                OFFSET 7.75947 0.938293 5.60832
                CHANNELS 3 Zrotation Xrotation Yrotation
                JOINT lIndex2
                {
                  OFFSET 2.54057 -0.884171 1.56538
                  CHANNELS 3 Zrotation Xrotation Yrotation
                  End Site
                  {
                    OFFSET 1.62519 -0.234802 1.16502
                  }
                }
              }
              JOINT lMid1
              {
                OFFSET 8.24714 1.18213 3.41376
                CHANNELS 3 Zrotation Xrotation Yrotation
                JOINT lMid2
                {
                  OFFSET 3.10165 -0.590103 1.0647
                  CHANNELS 3 Zrotation Xrotation Yrotation
                  End Site
                  {
                    OFFSET 2.48547 -0.328903 0.83742
                  }
                }
              }
              JOINT lRing1
              {
                OFFSET 8.82822 0.546677 1.51678
                CHANNELS 3 Zrotation Xrotation Yrotation
                JOINT lRing2
                {
                  OFFSET 2.60934 -0.819778 -0.0198488
                  CHANNELS 3 Zrotation Xrotation Yrotation
                  End Site
                  {
                    OFFSET 2.33842 -0.294052 0.168128
                  }
                }
              }
              JOINT lPinky1
              {
                OFFSET 8.27202 -0.0477905 -0.4584
                CHANNELS 3 Zrotation Xrotation Yrotation
                JOINT lPinky2
                {
                  OFFSET 1.82734 -0.647385 -0.700984
                  CHANNELS 3 Zrotation Xrotation Yrotation
                  End Site
                  {
                    OFFSET 1.69225 -0.51767 -0.607171
                  }
                }
              }
            }
          }
        }
      }
    }
  }
  JOINT rButtock
  {
    OFFSET -8.77824 4.35084 1.2192
    CHANNELS 3 Zrotation Xrotation Yrotation
    JOINT rThigh
    {
      OFFSET 0 -1.70687 -2.19456
      CHANNELS 3 Zrotation Xrotation Yrotation
      JOINT rShin
      {
        OFFSET 0 -36.8199 0.73152
        CHANNELS 3 Zrotation Xrotation Yrotation
        JOINT rFoot
        {
          OFFSET 0.73152 -45.1104 -5.12064
          CHANNELS 3 Zrotation Xrotation Yrotation
          End Site
          {
            OFFSET -1.1221 -3.69964 12.103
          }
        }
      }
    }
  }
  JOINT lButtock
  {
    OFFSET 8.77824 4.35084 1.2192
    CHANNELS 3 Zrotation Xrotation Yrotation
    JOINT lThigh
    {
      OFFSET 0 -1.70687 -2.19456
      CHANNELS 3 Zrotation Xrotation Yrotation
      JOINT lShin
      {
        OFFSET 0 -36.8199 0.73152
        CHANNELS 3 Zrotation Xrotation Yrotation
        JOINT lFoot
        {
          OFFSET -0.73152 -45.1104 -5.12064
          CHANNELS 3 Zrotation Xrotation Yrotation
          End Site
          {
            OFFSET 1.1221 -3.69964 12.103
          }
        }
      }
    }
  }
}
MOTION
Frames:	7
Frame Time:	0.00833333
0.0 0.0 0.0 0.0 0.0 0.0 0.0 0.0 0.0 0.0 0.0 0.0 0.0 0.0 0.0 0.0 0.0 0.0 0.0 0.0 0.0 0.0 0.0 0.0 0.0 0.0 0.0 0.0 0.0 0.0 0.0 0.0 0.0 0.0 0.0 0.0 0.0 0.0 0.0 0.0 0.0 0.0 0.0 0.0 0.0 0.0 0.0 0.0 0.0 0.0 0.0 0.0 0.0 0.0 0.0 0.0 0.0 0.0 0.0 0.0 0.0 0.0 0.0 0.0 0.0 0.0 0.0 0.0 0.0 0.0 0.0 0.0 0.0 0.0 0.0 0.0 0.0 0.0 0.0 0.0 0.0 0.0 0.0 0.0 0.0 0.0 0.0 0.0 0.0 0.0 0.0 0.0 0.0 0.0 0.0 0.0 0.0 0.0 0.0 0.0 0.0 0.0 0.0 0.0 0.0 0.0 0.0 0.0 0.0 0.0 0.0 0.0 0.0 0.0 0.0 0.0 0.0 0.0 0.0 0.0 0.0 0.0 0.0 0.0 0.0 0.0 0.0 0.0 0.0 0.0 0.0 0.0
94.1894 83.4783 -1.7585 42.820245 -82.616031 -37.133414 -1.067492 -7.299072 -180.0 -1.812744 -3.232705 -179.228463 -11.439178 15.787309 -87.270138 17.537785 12.470957 83.023442 -0.005322 -0.0 0.00339 0.000357 0.0 0.003461 3.268827 -26.755783 -5.242212 17.760458 15.004716 -7.513127 -4.71864 9.872858 6.006049 1.11179 1.160844 0.791438 -85.829178 38.631246 47.955613 -127.523162 -19.336826 78.611975 -162.919829 -37.928909 122.63027 -17.65504 42.698808 9.144534 -22.285626 41.334238 17.257045 -179.592978 -48.729097 141.385034 0.005254 1.771681 0.554548 -154.377062 12.77082 170.101608 -87.575549 -50.206876 -85.929492 -145.465248 8.73088 -141.913577 155.809785 -5.555511 -162.266409 -44.127577 -69.483442 -51.592926 100.13796 -72.174675 98.52467 -5.116164 -13.824543 -1.5194 -174.054738 -22.871239 -88.062376 37.686145 -23.585882 2.476213 -23.560365 -41.523287 5.64491 -11.133777 6.919879 1.359945 169.089802 -33.247634 -145.373357 170.550998 -26.263967 -143.895772 0.00077 -0.060808 0.019347 154.175128 -65.020775 178.252349 135.068267 -13.384599 132.470856 -34.850745 74.489783 0.045678 179.997688 75.750591 0.002385 179.822398 63.399251 -179.801373 -7.935204 -23.520294 -68.604058 27.309626 57.214971 -122.789514 0.000395 0.000784 -0.000508 -1.700875 -9.172137 180.0 -5.971952 -16.828224 -93.846847 -148.81066 32.081985 66.91716
94.1604 83.4681 -1.7931 39.500841 -82.821645 -33.937977 -2.419028 -5.411412 -24.130228 3.440724 -1.645461 26.008689 -5.488846 28.523473 -162.909431 0.499388 32.286425 155.606031 -0.000439 -0.0 0.004741 -0.000913 0.0 -0.000967 -155.574554 -3.976632 161.936484 97.288833 -70.105058 121.815989 131.063633 56.441296 -166.519495 -177.948774 27.939394 147.240272 -0.491739 0.484684 0.07645 30.627453 -50.406385 -17.524778 -16.401264 21.465386 11.215597 8.573732 0.589011 -0.785853 -169.090246 -33.247257 145.375104 -7.821654 26.568507 6.592826 -145.120315 0.227212 -179.198264 -152.422722 76.078018 167.144502 -145.395805 12.779505 -142.020949 -137.772944 -12.310843 -134.048134 29.828013 58.184225 -32.233362 -36.752236 13.145977 -41.010503 -138.548959 82.058735 -162.689063 -167.769886 -20.801865 -143.452585 2.608406 2.554551 -0.457743 14.835544 14.524677 -14.292504 1.162782 1.860764 -0.66825 -26.572937 -21.523195 0.766132 -0.541172 -1.589971 0.294517 7.309949 26.196857 -6.024695 0.002001 -0.018532 0.005784 156.109076 -13.744901 -173.483774 75.778836 -51.667609 74.249545 -2.265997 -2.992773 1.861322 0.000408 -0.000104 -0.000524 -2.44801 -16.516357 136.074034 13.539593 -22.690261 -81.826892 -72.391555 49.012717 -8.700374 -179.998595 75.748657 -0.0 171.894937 61.044527 -170.755801 7.175595 -27.254946 75.296975 -8.086743 76.507032 98.000672
94.1084 83.4734 -1.8297999999999999 36.886794 -83.052214 -31.540191 -4.236603 -7.858425 -28.448739 5.333989 -1.8956 31.143254 3.098319 19.284264 80.208646 -23.269133 -4.39756 -95.457087 -0.003135 -0.0 0.002703 -0.002279 -0.0 0.002054 -151.972475 14.764212 157.371666 127.813775 -10.44252 144.246362 11.410815 -56.523351 24.712344 -9.401334 40.480363 3.437811 -10.204377 9.66168 2.405327 -145.693552 -51.31475 113.315492 -152.314854 -18.948432 121.429367 0.945701 19.60753 -5.421368 -39.289138 53.365979 32.878096 -179.622 -48.74872 141.308695 -145.120029 0.185803 -179.185909 12.120002 44.800287 -3.853788 4.597493 13.359904 4.153982 2.250647 0.091659 0.009103 151.981048 14.727492 -157.381203 -41.234535 -59.164038 -98.950807 2.855528 66.211257 67.771742 -162.204938 -32.076831 -140.611432 -0.567594 -0.561595 0.083866 6.191775 6.974389 -4.875137 -0.184987 -0.300461 0.103253 -7.497616 5.841141 -0.48953 -89.035532 -81.39288 -59.760919 163.677003 -5.354353 -143.208441 145.099666 -1.521865 178.649506 72.78089 -78.004437 94.425898 1.149659 -2.914506 1.064979 127.267936 -31.005156 125.73822 179.995971 75.750593 0.004157 174.975033 57.091642 0.0 -3.198583 42.231812 -167.654257 112.823955 -10.145076 -177.074243 -179.974988 75.747532 -0.020579 170.277491 58.097394 -37.485514 -27.500838 27.799581 -178.807416 169.056553 27.428515 116.394943
94.0604 83.4765 -1.8672000000000002 35.04982 -83.396949 -29.897333 -6.56123 -9.167853 -1.320894 5.996691 -5.323368 4.503153 -7.983717 15.335176 14.296773 6.476185 -22.991283 -30.366417 0.001295 -0.0 -0.000698 0.000462 0.0 0.000296 -23.764451 -84.675113 -44.931283 116.126862 23.644035 -106.985343 147.757151 6.555421 145.393582 178.38097 23.016382 149.969428 -169.561043 -7.243593 89.929067 176.979905 -19.028193 94.117709 37.216765 -57.91748 -0.6418 20.720316 -6.84001 -4.755781 -10.975614 25.789787 7.640816 3.256377 0.208021 0.019166 -72.350842 72.974514 90.218242 -48.812607 -81.470628 -65.695642 -7.90371 -17.073402 -7.453233 36.005884 80.406281 0.676715 158.468343 -30.055583 -166.919662 69.775391 25.602723 15.224656 3.197258 -59.548208 86.923786 -160.007029 -35.235195 -139.45192 -7.920198 -7.912849 0.676319 144.864977 -54.804266 -126.023258 -10.746176 -19.048312 4.723805 149.355238 0.909725 -109.746633 -89.035034 -81.393575 -59.760417 163.94623 -6.180279 -143.292348 145.099025 -1.521712 178.6492 153.474815 -16.919348 176.805815 157.328486 57.245403 150.516339 149.00546 13.840072 142.521505 -0.001996 0.000358 -0.0 -3.744157 -21.243416 -4.511644 2.668612 35.995726 47.404097 -147.489103 30.617087 52.38052 -179.993886 75.749284 -0.006308 167.457112 54.813778 10.161884 -9.222853 36.714856 -71.801774 22.768255 -20.455304 79.773737
94.0284 83.5141 -1.8828 33.47957 -83.71889 -28.44606 -4.457145 -12.759499 -106.916254 1.481737 4.549377 110.336811 -16.132072 18.704014 -28.414425 29.389415 -11.308849 13.645186 0.000995 0.0 0.004704 0.000254 -0.0 -0.00188 -13.743052 42.431645 15.569006 -75.559827 1.479688 146.122894 -176.934641 42.145486 -157.48693 -8.381845 41.001223 3.716519 -2.814915 2.753806 0.497975 -93.822053 15.971638 86.259359 45.2828 -63.865356 4.306324 98.204439 -65.114178 40.28634 -160.993945 -7.65888 143.393124 86.517858 -77.971766 57.798536 -0.020441 -1.724393 -0.541654 9.493171 11.539809 1.483137 -86.000442 -50.498383 -84.3712 -22.653286 -39.756602 -24.746645 9.652484 34.835918 -11.200274 -108.494928 -1.837917 -22.895653 -88.702438 -20.326916 -74.68602 159.610924 59.493694 -136.430065 171.652463 -9.336534 -89.950544 -178.626191 -17.492469 -94.748379 141.999761 -0.613212 -116.932313 -13.946063 -9.157264 10.290239 151.477075 17.842181 -137.53987 -179.997185 -48.710897 -140.922317 0.014598 -1.32339 0.414326 156.065083 -15.220941 -173.658617 48.628107 -49.123422 47.368258 163.454833 65.332675 148.390815 -0.003807 -0.000592 -0.001904 -4.165443 -24.399763 170.001579 0.230565 -41.981607 -107.434632 -174.31768 -23.187598 98.023308 179.986151 75.751342 0.009476 167.181501 53.437789 15.816399 -5.532743 43.107831 -105.273713 115.836946 -56.089854 -173.171911
93.9564 83.5725 -1.9334 28.918091 -84.197641 -24.169524 -3.946771 -12.626025 -110.610872 1.119742 4.395023 114.006883 2.036102 24.262414 89.473049 -30.185472 -1.442074 -109.339467 -0.000913 -0.0 0.004202 -0.002452 0.0 -0.001244 -155.613537 -4.23637 161.991269 -151.698314 72.234515 79.558181 104.19209 -52.794146 61.937003 176.988247 19.061473 150.173885 6.669465 -6.658541 -0.64322 -133.284905 -29.499583 119.171488 -108.426102 34.160555 91.743309 109.459852 -67.757151 59.097417 -148.319094 24.248547 135.13388 -162.065143 -1.4771 142.625429 -0.000975 -0.018485 -0.006115 -155.825109 -7.86683 172.798639 -163.033591 73.433184 -150.718796 -161.255532 52.495672 -147.702276 0.165387 0.979166 -0.219008 -102.474071 9.107309 11.614372 19.914358 -4.140647 -44.76665 0.144537 8.699193 -1.206369 -81.972303 -50.091582 -32.722028 20.824138 -18.234421 20.835948 -10.747201 -19.047945 4.725264 12.41796 30.479879 -10.92681 82.840319 61.111529 -74.532355 -168.311044 -63.686863 -133.180626 -0.004826 1.770583 -0.555321 156.709182 -30.812341 -175.466466 8.19193 -17.575584 7.73 162.371255 64.172395 149.792175 -179.996151 75.749941 -0.003972 174.471341 53.831032 4.403172 8.501683 42.634819 97.477304 85.441738 75.180215 172.674819 -0.0 -0.000483 -0.00162 -7.716137 -23.595939 180.0 8.071777 -46.388382 66.721503 -158.728954 46.981702 -118.270868
